<?xml version="1.0" encoding="UTF-8" standalone="no"?>
<!DOCTYPE svg PUBLIC "-//W3C//DTD SVG 1.1//EN" "http://www.w3.org/Graphics/SVG/1.1/DTD/svg11.dtd">
<svg xmlns="http://www.w3.org/2000/svg" version="1.1" viewBox="0 0 239 84">
<g stroke-width="2.00" fill="none" stroke-linecap="butt">
<path stroke="#7f9681" vector-effect="non-scaling-stroke" d="
  M 46.00 58.71
  L 41.96 59.50"
/>
<path stroke="#83ad18" vector-effect="non-scaling-stroke" d="
  M 35.50 59.54
  L 32.50 59.04"
/>
</g>
<path fill="#ff090a" d="
  M 6.83 25.24
  Q 21.67 12.91 37.56 0.48
  A 0.88 0.87 -44.7 0 1 38.65 0.48
  Q 55.39 13.87 72.28 27.50
  Q 73.61 28.57 71.59 27.39
  Q 62.10 21.82 52.21 17.01
  Q 43.20 12.63 34.50 14.00
  Q 28.12 15.00 20.34 19.00
  Q 11.17 23.70 2.42 29.20
  Q 0.48 30.41 2.08 28.77
  Q 2.93 27.90 4.42 26.95
  Q 5.94 25.97 6.83 25.24
  Z"
/>
<path fill="#fda502" d="
  M 46.00 58.71
  L 41.96 59.50
  Q 39.79 55.06 43.41 53.67
  Q 46.40 52.52 46.46 52.48
  Q 52.08 49.25 54.02 43.50
  Q 55.82 38.12 53.90 32.52
  Q 51.04 24.20 41.50 22.25
  Q 34.74 20.87 28.56 25.56
  Q 24.17 28.90 22.95 34.29
  Q 21.84 39.26 23.66 44.10
  Q 26.20 50.85 33.45 53.50
  Q 35.82 54.37 36.44 55.38
  Q 37.60 57.28 35.50 59.54
  L 32.50 59.04
  Q 18.37 53.64 17.30 40.14
  Q 16.75 33.17 20.07 27.38
  Q 23.73 20.99 30.46 18.31
  Q 38.54 15.09 46.59 18.03
  Q 55.16 21.16 58.94 30.56
  Q 60.70 34.96 60.30 39.92
  Q 59.92 44.64 57.61 48.75
  Q 53.76 55.58 46.00 58.71
  Z"
/>
<path fill="#565454" d="
  M 181.65 43.79
  Q 183.20 44.05 184.57 45.19
  Q 185.72 46.15 186.46 47.71
  Q 188.60 52.17 186.81 57.31
  Q 185.17 62.03 181.21 63.55
  Q 177.67 64.91 174.45 63.04
  Q 170.99 61.03 170.50 56.50
  Q 169.03 42.83 174.44 29.69
  Q 175.59 26.89 177.51 24.97
  Q 179.67 22.82 182.16 22.82
  Q 184.73 22.83 185.85 25.33
  Q 186.55 26.89 186.43 29.38
  Q 186.08 36.62 181.24 42.72
  A 0.67 0.67 24.1 0 0 181.65 43.79
  Z
  M 180.19 27.68
  Q 178.41 30.43 177.74 33.65
  Q 176.59 39.28 176.02 44.84
  Q 175.80 47.00 176.80 45.08
  Q 179.75 39.47 181.73 33.49
  Q 182.66 30.66 182.06 28.01
  Q 181.52 25.64 180.19 27.68
  Z
  M 178.4542 59.5233
  A 5.68 3.36 94.4 0 0 182.2401 54.1178
  A 5.68 3.36 94.4 0 0 179.3258 48.1967
  A 5.68 3.36 94.4 0 0 175.5399 53.6022
  A 5.68 3.36 94.4 0 0 178.4542 59.5233
  Z"
/>
<path fill="#565454" d="
  M 90.70 64.00
  Q 87.08 63.30 87.06 59.50
  Q 87.00 46.25 87.00 33.00
  Q 87.00 31.65 88.46 31.83
  Q 89.30 31.93 90.07 31.87
  Q 92.06 31.72 91.88 33.73
  Q 91.75 35.18 91.75 35.27
  Q 91.75 44.97 91.75 54.67
  Q 91.75 54.74 91.62 56.82
  Q 91.36 61.13 96.02 59.89
  A 0.58 0.54 -18.5 0 1 96.70 60.20
  Q 97.20 61.46 97.11 62.81
  A 0.79 0.79 -8.6 0 1 96.60 63.50
  Q 93.74 64.59 90.70 64.00
  Z"
/>
<rect fill="#565454" x="136.25" y="34.75" width="3.26" height="29.26" rx="0.60"/>
<path fill="#565454" d="
  M 231.42 61.34
  Q 226.24 66.52 220.06 63.44
  Q 216.74 61.78 215.67 58.13
  Q 214.83 55.24 215.05 51.95
  Q 215.28 48.54 217.28 45.94
  Q 219.81 42.67 223.75 42.29
  Q 228.10 41.87 231.37 45.60
  Q 231.84 46.14 231.84 45.42
  L 231.80 35.55
  A 0.71 0.71 79.7 0 1 232.27 34.87
  Q 233.37 34.48 234.48 34.87
  A 0.75 0.68 -81.3 0 1 234.94 35.56
  L 235.00 63.23
  A 0.62 0.61 84.3 0 1 234.51 63.84
  Q 231.38 64.50 231.83 62.55
  Q 231.94 62.07 231.90 61.81
  Q 231.87 61.61 231.81 61.43
  A 0.24 0.23 -30.6 0 0 231.42 61.34
  Z
  M 230.38 47.36
  Q 226.19 44.20 222.76 45.74
  Q 219.76 47.08 218.73 50.98
  Q 217.83 54.38 219.34 57.54
  Q 220.82 60.64 224.01 61.34
  Q 228.28 62.29 231.39 58.33
  A 1.43 1.43 64.4 0 0 231.70 57.44
  L 231.74 50.05
  Q 231.75 48.39 230.38 47.36
  Z"
/>
<circle fill="#565454" cx="102.17" cy="37.50" r="2.16"/>
<circle fill="#565454" cx="193.47" cy="37.51" r="2.17"/>
<path fill="#565454" d="
  M 114.51 41.84
  A 1.27 1.27 80.7 0 0 116.11 42.99
  Q 118.89 42.24 118.71 44.54
  A 1.41 1.41 8.7 0 1 116.99 45.80
  Q 114.25 45.18 114.39 47.31
  Q 114.48 48.62 114.48 48.69
  Q 114.35 54.04 114.68 59.38
  Q 114.77 60.87 115.53 61.30
  Q 116.50 61.84 118.07 61.10
  A 0.75 0.74 60.0 0 1 119.00 61.35
  Q 120.27 63.20 118.43 63.80
  Q 111.00 66.21 111.03 58.50
  Q 111.05 52.53 110.95 46.56
  A 0.70 0.54 -88.9 0 0 110.46 45.90
  L 108.50 45.69
  A 0.94 0.56 -2.9 0 1 107.78 45.31
  Q 106.28 42.16 110.49 42.79
  A 0.45 0.44 3.9 0 0 111.00 42.35
  L 111.00 37.87
  A 0.68 0.68 -6.4 0 1 111.53 37.21
  Q 115.06 36.44 114.70 39.03
  Q 114.45 40.85 114.51 41.84
  Z"
/>
<path fill="#565454" d="
  M 127.26 41.50
  A 1.51 1.45 -6.3 0 0 129.08 42.90
  Q 132.31 42.19 131.68 45.07
  A 1.06 0.90 4.3 0 1 130.69 45.79
  L 127.67 45.85
  A 0.58 0.48 88.9 0 0 127.20 46.44
  Q 127.30 52.35 127.33 58.25
  Q 127.35 62.50 131.03 61.19
  A 0.82 0.67 -29.1 0 1 131.86 61.34
  Q 132.61 62.16 132.35 63.21
  A 0.99 0.84 -4.7 0 1 131.71 63.85
  Q 123.40 66.62 123.80 57.49
  Q 124.05 51.78 123.95 46.54
  A 0.84 0.84 86.3 0 0 123.02 45.72
  Q 119.33 46.12 120.77 43.18
  A 0.69 0.63 17.5 0 1 121.49 42.85
  Q 124.89 43.45 124.01 39.75
  Q 123.15 36.15 126.76 37.00
  A 0.66 0.64 -83.3 0 1 127.25 37.64
  L 127.26 41.50
  Z"
/>
<path fill="#565454" d="
  M 148.63 55.06
  Q 149.67 62.12 157.00 61.75
  Q 159.67 61.62 161.94 59.65
  A 0.72 0.64 -48.2 0 1 162.74 59.56
  Q 165.20 61.11 162.19 62.69
  Q 158.03 64.86 154.08 64.33
  Q 150.04 63.79 147.34 60.59
  Q 143.79 56.40 145.44 50.19
  Q 146.64 45.65 150.36 43.58
  Q 153.78 41.66 157.87 42.63
  Q 164.89 44.29 165.53 53.22
  A 1.19 1.19 -2.2 0 1 164.34 54.50
  L 149.05 54.56
  A 0.43 0.43 85.4 0 0 148.63 55.06
  Z
  M 159.58 46.42
  Q 155.26 43.33 151.16 46.68
  Q 148.86 48.55 148.50 51.49
  A 0.45 0.44 -86.6 0 0 148.94 51.99
  L 161.57 51.84
  A 0.53 0.52 89.4 0 0 162.08 51.31
  Q 162.12 48.24 159.58 46.42
  Z"
/>
<path fill="#565454" d="
  M 205.62 45.55
  Q 207.54 43.24 210.45 42.35
  Q 212.54 41.71 211.85 44.96
  A 0.91 0.90 7.2 0 1 210.93 45.67
  Q 208.03 45.55 205.62 48.29
  A 2.43 2.42 66.1 0 0 205.00 49.91
  L 205.00 63.24
  A 0.60 0.60 -5.9 0 1 204.52 63.83
  Q 201.50 64.49 201.68 62.45
  Q 201.75 61.63 201.75 61.54
  Q 201.75 52.76 201.75 43.58
  A 0.70 0.70 -6.2 0 1 202.30 42.90
  Q 205.56 42.19 204.99 44.75
  Q 204.89 45.19 205.03 45.53
  A 0.37 0.32 -38.4 0 0 205.62 45.55
  Z"
/>
<rect fill="#565454" x="100.50" y="42.75" width="3.26" height="21.26" rx="0.60"/>
<rect fill="#565454" x="191.75" y="42.75" width="3.50" height="21.26" rx="0.60"/>
<path fill="#0086ff" d="
  M 41.96 59.50
  L 46.00 58.71
  L 70.23 56.00
  A 0.44 0.40 -3.9 0 1 70.71 56.38
  L 70.97 65.43
  A 0.45 0.42 4.5 0 1 70.45 65.85
  Q 56.07 63.27 41.96 59.50
  Z"
/>
<path fill="#08b52e" d="
  M 32.50 59.04
  L 35.50 59.54
  Q 34.55 60.06 32.00 60.50
  Q 19.14 62.70 5.70 64.84
  A 0.51 0.51 -0.4 0 1 5.12 64.27
  Q 5.57 60.80 7.11 57.27
  A 0.70 0.67 13.5 0 1 7.80 56.87
  L 32.50 59.04
  Z"
/>
</svg>
