<?xml version="1.0" encoding="UTF-8" standalone="no"?>
<!DOCTYPE svg PUBLIC "-//W3C//DTD SVG 1.1//EN" "http://www.w3.org/Graphics/SVG/1.1/DTD/svg11.dtd">
<svg xmlns="http://www.w3.org/2000/svg" version="1.1" viewBox="0 0 242 84">
<g stroke-width="2.00" fill="none" stroke-linecap="butt">
<path stroke="#7f9681" vector-effect="non-scaling-stroke" d="
  M 46.00 58.71
  Q 43.92 59.51 41.79 59.00"
/>
<path stroke="#83ad18" vector-effect="non-scaling-stroke" d="
  M 35.50 59.54
  L 32.50 59.04"
/>
</g>
<path fill="#ff090a" d="
  M 6.83 25.24
  Q 21.67 12.91 37.58 0.46
  A 0.83 0.83 -40.2 0 1 38.60 0.46
  Q 55.27 13.73 71.99 27.01
  Q 74.10 28.68 71.65 27.28
  Q 62.10 21.82 52.21 17.01
  Q 43.20 12.63 34.50 14.00
  Q 28.12 15.00 20.34 19.00
  Q 11.17 23.70 2.42 29.20
  Q 0.48 30.41 2.08 28.77
  Q 2.93 27.90 4.42 26.95
  Q 5.94 25.97 6.83 25.24
  Z"
/>
<path fill="#fda502" d="
  M 46.00 58.71
  Q 43.92 59.51 41.79 59.00
  Q 39.98 54.99 43.41 53.73
  Q 45.36 53.01 45.41 52.99
  Q 51.75 49.88 53.91 43.81
  Q 55.94 38.12 53.78 32.20
  Q 50.86 24.17 41.50 22.25
  Q 34.74 20.87 28.56 25.56
  Q 24.17 28.90 22.96 34.30
  Q 21.84 39.27 23.66 44.10
  Q 26.20 50.85 33.45 53.50
  Q 35.82 54.37 36.44 55.38
  Q 37.60 57.28 35.50 59.54
  L 32.50 59.04
  Q 18.37 53.64 17.30 40.14
  Q 16.75 33.17 20.07 27.38
  Q 23.73 20.99 30.46 18.31
  Q 38.54 15.09 46.59 18.03
  Q 55.16 21.16 58.94 30.56
  Q 60.70 34.96 60.30 39.92
  Q 59.92 44.64 57.61 48.75
  Q 53.76 55.58 46.00 58.71
  Z"
/>
<path fill="#565454" d="
  M 93.31 58.69
  Q 95.81 60.10 98.09 58.35
  Q 101.05 56.09 101.00 59.96
  Q 100.98 62.13 98.96 62.95
  Q 90.92 66.20 87.81 59.44
  Q 86.00 55.49 86.39 49.49
  Q 86.88 42.08 89.31 33.81
  Q 90.48 29.84 92.50 26.72
  Q 94.35 23.86 96.64 22.99
  Q 99.56 21.88 101.43 24.50
  Q 102.58 26.11 102.72 28.77
  Q 102.96 33.16 101.61 37.41
  Q 98.45 47.36 92.31 55.81
  Q 91.12 57.45 93.31 58.69
  Z
  M 95.87 28.98
  Q 92.27 38.03 91.97 48.81
  Q 91.95 49.51 92.33 48.92
  Q 98.01 40.10 98.47 30.07
  Q 98.52 29.11 98.40 28.43
  Q 98.01 26.18 96.73 27.52
  Q 96.25 28.03 95.87 28.98
  Z"
/>
<path fill="#565454" d="
  M 184.39 43.74
  Q 185.98 43.99 187.30 45.00
  Q 188.40 45.84 189.17 47.43
  Q 192.11 53.46 189.26 58.73
  Q 186.83 63.21 182.07 64.01
  Q 177.30 64.82 174.88 60.36
  Q 173.50 57.83 173.20 53.28
  Q 172.17 38.22 179.56 25.81
  Q 181.39 22.75 184.59 22.82
  Q 187.52 22.88 188.65 25.51
  Q 189.62 27.77 189.25 31.00
  Q 188.48 37.72 184.05 42.82
  Q 183.39 43.58 184.39 43.74
  Z
  M 183.09 28.00
  Q 179.64 35.59 179.19 43.95
  Q 178.99 47.56 180.32 44.19
  Q 181.19 41.99 182.72 39.15
  Q 185.40 34.20 185.05 28.65
  Q 185.00 27.90 184.69 27.44
  Q 183.88 26.25 183.09 28.00
  Z
  M 181.4241 59.4940
  A 5.68 3.33 94.3 0 0 185.1706 54.0797
  A 5.68 3.33 94.3 0 0 182.2759 48.1660
  A 5.68 3.33 94.3 0 0 178.5294 53.5803
  A 5.68 3.33 94.3 0 0 181.4241 59.4940
  Z"
/>
<rect fill="#565454" x="139.24" y="34.77" width="3.26" height="29.20" rx="0.56"/>
<path fill="#565454" d="
  M 234.45 44.93
  L 234.50 35.65
  A 0.71 0.71 -6.1 0 1 235.06 34.96
  Q 238.25 34.26 238.07 36.32
  Q 238.00 37.10 238.00 37.18
  Q 238.00 49.16 238.00 61.14
  Q 238.00 63.21 237.93 63.35
  Q 237.44 64.33 235.04 63.78
  A 0.71 0.70 -77.9 0 1 234.51 62.95
  Q 235.07 60.29 233.57 61.89
  Q 233.15 62.34 232.87 62.55
  Q 229.48 65.18 226.06 64.44
  Q 219.42 62.99 218.20 56.26
  Q 217.56 52.75 218.61 49.33
  Q 220.81 42.10 228.50 42.25
  Q 230.84 42.30 234.06 45.10
  Q 234.45 45.44 234.45 44.93
  Z
  M 233.37 47.36
  Q 229.17 44.19 225.76 45.73
  Q 222.77 47.08 221.73 50.97
  Q 220.82 54.37 222.33 57.53
  Q 223.83 60.66 227.00 61.37
  Q 231.05 62.27 234.12 58.58
  A 1.40 1.36 -25.6 0 0 234.45 57.69
  L 234.50 49.59
  A 2.85 2.71 19.6 0 0 233.37 47.36
  Z"
/>
<circle fill="#565454" cx="105.15" cy="37.50" r="2.15"/>
<circle fill="#565454" cx="196.40" cy="37.52" r="2.16"/>
<path fill="#565454" d="
  M 117.49 41.47
  A 1.54 1.54 82.6 0 0 119.32 42.88
  Q 122.30 42.29 121.70 44.99
  A 1.10 1.10 10.4 0 1 120.44 45.83
  Q 119.05 45.58 118.03 45.88
  A 0.74 0.67 83.1 0 0 117.55 46.56
  Q 117.45 52.65 117.37 58.75
  Q 117.32 62.26 121.07 61.16
  A 0.74 0.72 63.1 0 1 121.87 61.43
  Q 122.76 62.64 122.31 63.39
  Q 122.01 63.88 120.87 64.16
  Q 113.73 65.89 113.89 58.00
  Q 114.00 52.38 114.00 46.22
  A 0.51 0.49 -0.0 0 0 113.49 45.73
  L 111.31 45.73
  A 0.77 0.70 79.5 0 1 110.63 45.22
  Q 109.49 42.03 113.14 42.73
  A 0.73 0.72 5.3 0 0 114.00 42.02
  L 114.00 37.87
  A 0.68 0.68 -6.4 0 1 114.53 37.21
  Q 118.06 36.44 117.70 39.03
  Q 117.45 40.85 117.49 41.47
  Z"
/>
<path fill="#565454" d="
  M 130.81 42.70
  L 133.93 42.80
  A 0.76 0.71 -8.2 0 1 134.62 43.28
  Q 135.71 46.47 131.36 45.63
  A 0.90 0.90 6.5 0 0 130.28 46.49
  Q 130.09 53.03 130.42 58.75
  Q 130.51 60.36 131.21 61.03
  Q 132.30 62.08 134.06 61.24
  A 0.77 0.63 -33.1 0 1 134.88 61.33
  Q 135.60 62.09 135.30 62.99
  Q 135.09 63.65 134.21 64.00
  Q 129.95 65.71 128.02 62.75
  Q 127.00 61.18 127.01 57.55
  Q 127.03 52.05 126.94 46.56
  A 0.68 0.52 -88.8 0 0 126.46 45.90
  L 124.42 45.74
  A 0.92 0.55 -3.1 0 1 123.72 45.37
  Q 122.31 42.15 126.42 42.78
  A 0.51 0.51 -86.1 0 0 127.00 42.27
  L 127.00 37.79
  A 0.65 0.64 -6.1 0 1 127.51 37.16
  Q 130.81 36.44 130.25 39.00
  Q 130.14 39.52 130.28 42.19
  A 0.54 0.54 88.9 0 0 130.81 42.70
  Z"
/>
<path fill="#565454" d="
  M 153.55 54.54
  Q 150.08 54.54 152.05 57.42
  Q 157.32 65.12 164.91 59.61
  A 0.89 0.74 -46.2 0 1 165.77 59.51
  Q 166.64 59.97 166.86 60.94
  A 0.80 0.71 -26.5 0 1 166.54 61.73
  Q 159.63 66.72 153.38 63.04
  Q 149.50 60.76 148.31 56.63
  Q 147.03 52.21 149.31 47.81
  Q 151.57 43.46 156.00 42.49
  Q 160.17 41.56 163.69 43.79
  Q 168.28 46.69 168.52 53.49
  A 0.99 0.98 -0.8 0 1 167.53 54.50
  L 153.55 54.54
  Z
  M 160.50 45.44
  Q 154.65 43.56 151.74 50.15
  A 1.32 1.31 -78.0 0 0 152.94 52.00
  L 164.60 52.00
  A 0.64 0.64 87.9 0 0 165.24 51.31
  Q 165.06 49.14 163.75 47.53
  Q 162.58 46.11 160.50 45.44
  Z"
/>
<path fill="#565454" d="
  M 208.16 45.11
  Q 207.93 46.44 208.85 45.44
  Q 211.23 42.84 214.18 42.37
  A 0.65 0.62 -13.7 0 1 214.88 42.78
  Q 215.25 43.88 214.87 44.98
  A 0.84 0.70 3.6 0 1 214.19 45.48
  Q 211.28 45.80 209.23 47.45
  A 3.30 3.30 70.6 0 0 208.00 50.02
  Q 208.00 56.12 208.00 61.62
  Q 208.00 63.18 207.48 63.74
  Q 206.71 64.56 205.20 63.95
  A 0.75 0.71 -79.7 0 1 204.75 63.26
  L 204.81 43.57
  A 0.74 0.71 80.5 0 1 205.28 42.88
  Q 208.76 41.62 208.16 45.11
  Z"
/>
<rect fill="#565454" x="103.50" y="42.75" width="3.26" height="21.24" rx="0.51"/>
<rect fill="#565454" x="194.75" y="42.75" width="3.26" height="21.26" rx="0.60"/>
<path fill="#0086ff" d="
  M 41.79 59.00
  Q 43.92 59.51 46.00 58.71
  L 70.00 56.07
  A 0.54 0.51 -8.0 0 1 70.59 56.49
  Q 71.42 60.98 70.82 65.51
  A 0.47 0.47 9.8 0 1 70.26 65.90
  Q 56.20 63.09 42.25 59.75
  Q 41.68 59.61 41.79 59.00
  Z"
/>
<path fill="#08b52e" d="
  M 32.50 59.04
  L 35.50 59.54
  Q 34.55 60.06 32.00 60.50
  Q 19.14 62.70 5.70 64.84
  A 0.51 0.51 -0.4 0 1 5.12 64.27
  Q 5.57 60.80 7.11 57.27
  A 0.70 0.67 13.5 0 1 7.80 56.87
  L 32.50 59.04
  Z"
/>
</svg>
