<svg width="75" height="70" viewBox="0 0 75 70" fill="none" xmlns="http://www.w3.org/2000/svg">
<path d="M74.5 29C38 8 38 8.5 0 30.5L38 0L74.5 29Z" fill="#FF0A0A"/>
<path d="M17.2652 34.2869C17.4083 33.6358 17.5514 32.9847 17.6945 32.3335C19.439 26.7239 22.6693 22.4657 27.3852 19.559C29.2878 18.3867 31.3283 17.529 33.5067 16.9861C38.3132 15.7898 43.0117 16.1931 47.6021 18.1961C49.689 19.1052 51.5515 20.2948 53.1897 21.7651C56.7228 24.935 59.0126 28.9432 60.0591 33.7896C60.5151 35.9079 60.6255 38.0459 60.3903 40.2034C59.7776 45.7979 57.4007 50.454 53.2597 54.1719C49.7815 57.296 45.7175 59.1048 41.0676 59.5984C40.9765 59.6091 40.9001 59.5377 40.8991 59.4488L40.8837 48.9884C40.885 48.8897 40.9513 48.8053 41.0459 48.7783C43.0921 48.2678 44.8366 47.3281 46.2796 45.9592C47.6701 44.6425 48.6681 43.0154 49.2736 41.078C50.3078 37.7695 49.7632 34.6306 47.6398 31.6613C45.886 29.2054 43.5976 27.7436 40.7744 27.2757C38.5423 26.9035 36.3718 27.1774 34.263 28.0974C31.4757 29.3096 29.5565 31.4168 28.5055 34.419C27.9088 36.1195 27.7135 37.7955 27.9194 39.447C28.1439 41.2415 28.778 42.8654 29.8215 44.3188C31.3581 46.4584 33.5146 47.9049 36.2909 48.6583C36.4776 48.7096 36.6045 48.8774 36.6035 49.0683L36.548 59.3698C36.5483 59.462 36.4711 59.5337 36.3789 59.534C34.9922 59.5182 33.4413 59.1934 31.7263 58.5594C24.7866 55.9925 20.2189 51.3131 18.0231 44.5214C17.0125 41.3961 16.7599 37.9846 17.2652 34.2869Z" fill="#FFB800"/>
<path d="M70.7716 56.3314C70.7474 56.1314 70.6554 56.0082 70.5406 56.0202C60.9592 57.2047 51.3706 58.3362 41.775 59.4146C41.7126 59.4209 41.6423 59.4067 41.5641 59.3721C41.4487 59.3205 41.3756 59.3387 41.3449 59.4266C41.305 59.5362 41.3587 59.677 41.451 59.6963L70.7452 66.1121C70.895 66.1457 71.0505 65.897 71.0637 65.6044C71.2125 62.3493 71.1151 59.2583 70.7716 56.3314Z" fill="#0086FF"/>
<path d="M6.74832 57.8287C6.98019 57.0247 7.36971 56.6853 7.91689 56.8105C8.31643 56.9013 8.52081 56.9474 8.53004 56.9489C17.8195 57.864 27.1103 58.7707 36.4023 59.6688C36.4417 59.6705 36.4697 59.7097 36.4603 59.7519L36.451 59.794C36.4449 59.8149 36.4223 59.8332 36.3988 59.8383L5.31397 64.9302C5.14285 64.956 5.02029 64.7409 5.06252 64.4859C5.40013 62.4109 5.87571 60.488 6.48924 58.7171C6.5032 58.6757 6.58956 58.3796 6.74832 57.8287Z" fill="#08B52E"/>
</svg>
